<svg width="87" height="35" viewBox="0 0 87 35" xmlns="http://www.w3.org/2000/svg"><title>radio 1</title><defs><filter x="-50%" y="-50%" width="200%" height="200%" filterUnits="objectBoundingBox" id="a"><feOffset dy="1" in="SourceAlpha" result="shadowOffsetOuter1"/><feGaussianBlur stdDeviation="1" in="shadowOffsetOuter1" result="shadowBlurOuter1"/><feColorMatrix values="0 0 0 0 0 0 0 0 0 0 0 0 0 0 0 0 0 0 0.07 0" in="shadowBlurOuter1" result="shadowMatrixOuter1"/><feMerge><feMergeNode in="shadowMatrixOuter1"/><feMergeNode in="SourceGraphic"/></feMerge></filter></defs><g fill="none" fill-rule="evenodd"><g transform="translate(-131 -141)"><rect stroke="#CCC" fill="#FFF" filter="url(#a)" x="121" y="122" width="106" height="107" rx="1"/><g transform="translate(12 17)"><text font-family="Open Sans" font-size="8" fill="#CCC"><tspan x="122" y="131">Date/Time Label</tspan></text><rect stroke="#CCC" fill="#EEECEC" x="121" y="137" width="83" height="20" rx="1"/></g></g><g transform="translate(68 16)"><path stroke="#CCC" stroke-width="1.5" d="M0 2.206h12.07v9.927H0z"/><path id="Rectangle-110" fill="#CCC" d="M0 2.482h12.07v3.033H0z"/><path d="M4.527.506V3.54H2.515V.505h2.012z" id="Rectangle-110" stroke="#EDECEC" stroke-width=".5" fill="#CCC"/><path d="M9.557.506V3.54H7.545V.505h2.012z" stroke="#EDECEC" stroke-width=".5" fill="#CCC"/><ellipse fill="#EDECEC" cx="9.75" cy="10.733" rx="3.25" ry="3.267"/><g transform="translate(7.429 8.4)" stroke="#CCC" stroke-width=".6"><ellipse cx="2.321" cy="2.333" rx="2.321" ry="2.333"/><path d="M2.11.636v1.697l.845.85"/></g></g></g></svg>