<svg width="83" height="38" viewBox="0 0 83 38" xmlns="http://www.w3.org/2000/svg"><title>Form Icon 2</title><defs><filter x="-50%" y="-50%" width="200%" height="200%" filterUnits="objectBoundingBox" id="a"><feOffset dy="1" in="SourceAlpha" result="shadowOffsetOuter1"/><feGaussianBlur stdDeviation="1" in="shadowOffsetOuter1" result="shadowBlurOuter1"/><feColorMatrix values="0 0 0 0 0 0 0 0 0 0 0 0 0 0 0 0 0 0 0.07 0" in="shadowBlurOuter1" result="shadowMatrixOuter1"/><feMerge><feMergeNode in="shadowMatrixOuter1"/><feMergeNode in="SourceGraphic"/></feMerge></filter></defs><g fill="none" fill-rule="evenodd"><g transform="translate(-11 -19)"><rect stroke="#CCC" fill="#FFF" filter="url(#a)" width="106" height="107" rx="1"/><g transform="translate(14 41)"><circle stroke="#7AB55C" fill="#7AB55C" cx="7" cy="7" r="7"/><path d="M11.327 5.396c0 .16-.057.297-.17.41L6.803 10.16l-.82.818c-.11.112-.247.168-.408.168-.16 0-.297-.056-.41-.168l-.817-.818-2.18-2.18C2.058 7.873 2 7.736 2 7.575c0-.16.056-.297.168-.41l.82-.817c.11-.113.248-.17.408-.17.16 0 .297.057.41.17l1.768 1.775L9.52 4.168c.114-.112.25-.168.41-.168.16 0 .297.056.41.168l.818.82c.112.11.17.248.17.408z" fill="#FFF"/><text id="Radio-item" font-family="Open Sans" font-size="8" fill="#CCC"><tspan x="24" y="9">Radio item</tspan></text></g><g transform="translate(10 18)"><circle stroke="#CCC" fill="#EDECEC" cx="11" cy="10" r="7"/><text font-family="Open Sans" font-size="8" fill="#CCC"><tspan x="28" y="12">Radio item</tspan></text></g></g></g></svg>